<svg style="fill-rule:nonzero;clip-rule:evenodd;stroke-linecap:round;stroke-linejoin:round;" xmlns:vectornator="http://vectornator.io" xmlns:xlink="http://www.w3.org/1999/xlink" xmlns="http://www.w3.org/2000/svg" xml:space="preserve" version="1.1" viewBox="0 0 20 20">
<g id="Calque 1" vectornator:layerName="Calque 1">
<path d="M17.7778+4.5L2.22222+4.5C1+4.5+0+5.4+0+6.5L0+13.5C0+14.6+1+15.5+2.22222+15.5L17.7778+15.5C19+15.5+20+14.6+20+13.5L20+6.5C20+5.4+19+4.5+17.7778+4.5ZM18.3333+13.5C18.3333+13.8+18.1111+14+17.7778+14L2.22222+14C1.88889+14+1.66667+13.8+1.66667+13.5L1.66667+6.5C1.66667+6.2+1.88889+6+2.22222+6L17.7778+6C18.1111+6+18.3333+6.2+18.3333+6.5L18.3333+13.5ZM5.55556+10.8L14.4444+10.8L14.4444+9.3L5.55556+9.3L5.55556+10.8Z" opacity="1" fill="#bfbfbf"/>
</g>
</svg>
